/* XPM */
static char *_058bc2a8f644997ed758835d0bdec59Z51q0l0CZoAERoj4[] = {
/* columns rows colors chars-per-pixel */
"50 50 249 2 ",
"   c #0B0B0D",
".  c #050507",
"X  c #0E0D12",
"o  c #0E0C19",
"O  c #110F13",
"+  c #110F1D",
"@  c #131215",
"#  c #15131C",
"$  c #1B1A1D",
"%  c #191818",
"&  c #15120D",
"*  c #231C18",
"=  c #371609",
"-  c #2B2318",
";  c #35261A",
":  c #38391A",
">  c #312B0B",
",  c #161422",
"<  c #181623",
"1  c #1D1B24",
"2  c #1E1C29",
"3  c #1A1728",
"4  c #120F20",
"5  c #221D24",
"6  c #211E2B",
"7  c #281E26",
"8  c #231F30",
"9  c #1D2124",
"0  c #252225",
"q  c #24222B",
"w  c #2A252C",
"e  c #2D2B2D",
"r  c #2C2624",
"t  c #352B23",
"y  c #322C2C",
"u  c #372B28",
"i  c #34322E",
"p  c #3A352B",
"a  c #252331",
"s  c #292634",
"d  c #2C2A34",
"f  c #2D2B3A",
"g  c #292639",
"h  c #322E35",
"j  c #312E3C",
"k  c #343334",
"l  c #3C3533",
"z  c #33323C",
"x  c #39363C",
"c  c #3B3A3C",
"v  c #3D3B35",
"b  c #2F3035",
"n  c #573218",
"m  c #4B2F12",
"M  c #432A27",
"N  c #463929",
"B  c #443D3B",
"V  c #453A35",
"C  c #533E37",
"Z  c #5D3D28",
"A  c #6C3C25",
"S  c #60361E",
"D  c #3F4238",
"F  c #3E452D",
"G  c #3A491E",
"H  c #585D1C",
"J  c #514A16",
"K  c #715519",
"L  c #7F641F",
"P  c #45492A",
"I  c #59592A",
"U  c #474539",
"Y  c #544835",
"T  c #585539",
"R  c #504E2C",
"E  c #7A492A",
"W  c #674837",
"Q  c #7A4934",
"!  c #65563D",
"~  c #7A583D",
"^  c #6D5C29",
"/  c #5F6329",
"(  c #63632C",
")  c #656729",
"_  c #69663C",
"`  c #76793A",
"'  c #776733",
"]  c #5A641F",
"[  c #353341",
"{  c #393643",
"}  c #3C3A44",
"|  c #3E3C4A",
" . c #373648",
".. c #423E44",
"X. c #413E4C",
"o. c #493F40",
"O. c #423E51",
"+. c #483F50",
"@. c #434246",
"#. c #44434C",
"$. c #49464C",
"%. c #4C4A4C",
"&. c #4C4744",
"*. c #554B46",
"=. c #5A5748",
"-. c #454252",
";. c #494654",
":. c #4D4B54",
">. c #49455A",
",. c #4D4B5B",
"<. c #464557",
"1. c #514E55",
"2. c #514D5C",
"3. c #5F4E54",
"4. c #545254",
"5. c #55535C",
"6. c #59565C",
"7. c #5B5A5C",
"8. c #5A5856",
"9. c #4C525A",
"0. c #674B48",
"q. c #695B4A",
"w. c #755948",
"e. c #655958",
"r. c #7B5B56",
"t. c #6C6745",
"y. c #756649",
"u. c #6C6354",
"i. c #696358",
"p. c #766957",
"a. c #78755A",
"s. c #4F4B61",
"d. c #524E61",
"f. c #555263",
"g. c #585664",
"h. c #5C5A65",
"j. c #5A5669",
"k. c #5D5B6B",
"l. c #555566",
"z. c #4F5065",
"x. c #615C6A",
"c. c #615D73",
"v. c #656364",
"b. c #63636B",
"n. c #6C6C6C",
"m. c #6A6566",
"M. c #746B67",
"N. c #6E706F",
"B. c #72726D",
"V. c #7B7868",
"C. c #656372",
"Z. c #6C6B74",
"A. c #6B6679",
"S. c #6D6B7B",
"D. c #696574",
"F. c #716E72",
"G. c #716D7C",
"H. c #747473",
"J. c #767975",
"K. c #7A7B75",
"L. c #74747B",
"P. c #7A767A",
"I. c #7C7C7C",
"U. c #7A7573",
"Y. c #6E7172",
"T. c #5E626D",
"R. c #835638",
"E. c #836B3B",
"W. c #90753E",
"Q. c #8A5D4D",
"!. c #88694A",
"~. c #836956",
"^. c #847A5A",
"/. c #957050",
"(. c #A87859",
"). c #A17550",
"_. c #876C66",
"`. c #847A66",
"'. c #847C7C",
"]. c #90716B",
"[. c #A47C6A",
"{. c #7A8654",
"}. c #7E817B",
"|. c #AF8B3D",
" X c #848949",
".X c #908452",
"XX c #A88D57",
"oX c #AF924E",
"OX c #898469",
"+X c #94896C",
"@X c #83827C",
"#X c #898777",
"$X c #9A8A7D",
"%X c #95956D",
"&X c #AE9271",
"*X c #B4A66C",
"=X c #97A37D",
"-X c #C29D55",
";X c #C29870",
":X c #CFB374",
">X c #E1C37B",
",X c #716E80",
"<X c #757382",
"1X c #7A7586",
"2X c #7C7C82",
"3X c #7D7B8B",
"4X c #797688",
"5X c #817E8D",
"6X c #857E84",
"7X c #828282",
"8X c #898A85",
"9X c #84838D",
"0X c #8C8C8C",
"qX c #8A8888",
"wX c #989788",
"eX c #868493",
"rX c #898593",
"tX c #8C8B94",
"yX c #8D8B9B",
"uX c #898698",
"iX c #918C96",
"pX c #939292",
"aX c #93919D",
"sX c #908C8D",
"dX c #AC988C",
"fX c #AAAE9D",
"gX c #AFAA8D",
"hX c #9593A2",
"jX c #9D9BAC",
"kX c #9B99A6",
"lX c #928FA2",
"zX c #A09EA3",
"xX c #A6A5A5",
"cX c #B4B7A7",
"vX c #A8A6B4",
"bX c #B1AFBD",
"nX c #B5B3B3",
"mX c #D2BC83",
"MX c #BFC0B2",
"NX c #CFC785",
"BX c #EBCD97",
"VX c #C7C8B9",
"CX c #D6C9B2",
"ZX c #EED8A9",
"AX c #BCBAC6",
"SX c #D5D6CA",
"DX c #D4D2D0",
"FX c #E3E2D5",
"GX c #F0F0E6",
/* pixels */
"I.7XI.J.H.H.K.P.H.U.K.B.H.H.L.L.I.@X7X0XpXsXsXsX0XF.x.F.0XpX0X7X6X6XP.H.K.J.N.K.F.H.B.U.U.U.K.I.I.@X",
"7XI.I.K.B.H.F.P.H.B.B.B.J.N.Y.L.I.K.qX0XpXpXsXpX7XH.v.H.8X0X0X@XI.6XP.n.L.J.H.H.H.H.H.H.B.H.K.I.7XI.",
"2X2XK.H.H.H.L.2XL.L.J.J.B.K.U.I.}.}.7X0X0XqX0X0X8XB.v.Y.0XpX0X@X@X@XK.K.I.H.H.H.L.J.K.N.H.U.P.I.2XI.",
"}.}.K.V.V.V.#X@X8X8X8X@X#X#X#X#XsX8X@X@X@XK.V.K.V.B.i.B.8XwXsX8X#XwX#X'.qX'.M.p.V.V.`.V.`.`.OX`.`.V.",
"_ _ I ^..X.X%Xt.P F : P %X%Xt.y.u.P T a.OX^.t.=X^.t.gXdX+XY > > N Y 0.q.p.~.w.&XZX*XXX:X*X*X.XoX:XXX",
"` ` ) `  X*X` / P : gXOXOX=X+X^.a.q.Y Y t.y.t.&X%X_ &XgX^.! : N T N _._.r.[.).&X;X:X:X:X>X:XoXoX-X|.",
"] H ( ( H  X X{.I G {.=XT T =.U V ; t t ; : N N Y q.u.OXu.u.i.=.=.=.M.r.r.Q.Q E R.&XBX:X:X-XL oXoX|.",
"H ) / / / H `  Xt.P : R =.F i e y y p u p p N V N *.*.*.*.=.&.B U U V V 0.~.[.R.(.(.R.&XXXoXK oXoX|.",
"J ( _ I ( ( / ( a.a.P =.U i c k c x c 4.7.v.n.e.e.8.v.7.4.%.4.&.D v i i M N w./.;X(.).(.).XXoXoXoXL ",
") I J J m m J ( R Y U i p k c 5.5.b.b.5.v.$.$.4.m.n.:.@.:.4.4.8.6.m.7.%.B ; m Z [.Q.~ /.!.E.' oX.XK ",
":XNXXX> E.n /.^.Y u r i U i e.m.@.} k x 4.x x } z w z x e c y c #.:.;.%.8.&.; ; C 0.w._.^._ J .XE.K ",
":X:XBXW.L XXXX.XY ; y x ..$.m.1.l k d ..{ d a s d s s d d w e x x d d s x @.V V - C C Y q.T I ^.' ~ ",
"*X*XmXBX&X/.E.t.N u ..X.:.5.6.} k { X.{ d f 3 6 8 f q q s q s q s q j d 0 e k l &.y V *.t - P t.~.~.",
"' K ^ /.' !.^.N ; y { ,.j.-.#.x | } z a s a f g g g s f 2 d z d 2 < 6 2 6 w 0 0 U v i B *.p & Y q.w.",
"R.n m m m +XCXq.t l #.d.f.,.| [ f a 2 a a , g f f [ s j j d j d q $ 1 0 w d w w y k k i B *.t - t V ",
"/./.!.W ! dXCXu.t B ;.>.>.f. .f [ s f :.;.-.a a f j [ s f f f f 9 @ % $ $ 6 w d 5 y y y U l r p V i ",
"Q.R.(.~ ~ dX$Xe.B ..2.-.-.<.-.j z f | | s d q z d } [ s q [ s d $ e d 0 O 5 5 5 w h r r y l * V B B ",
"Q Q.Q /.w.p.#XM.i :.h.O.>.s.| -.[ z [ z s d d z z z d s f z d q O 0 q $ # w w 5 e 7 y r r *.*.* B *.",
"A E R.W y.p.V.=.0 ..-.[ l.c.O.| #.} [ } } j z f d q s d [ 6 s s 1 1 1 1 5 5 5 w w e e r B m.p M.VXwX",
"Q A R.!.y.! =.=.k x -.d.k.s.<.[ | -.| [ f d j s d z f s a f f d q q w w q 0 0 0 5 w 5 5 v v &.SXFXfX",
"A S ~ ~.y.Y p.B.%.5.:.;.C.j.>.[ f [ | | f s f | | { | d [ z z j d d j d q s d w e * w y r B cXFXVXVX",
"n n W W ~.$XwXB.7.%.#.,.C.f.>.-.| -.| g q z | ;.-.;.:.[ X.:.X.{ [ s d [ d w 0 0 0 e r v l 8.FXGXSXVX",
"n m m = $XgX$Xe.v.6.;.5.C.k.:.+.;.-.| O.2.5.5.2.f.;.:.#.5.:.,.;.#.} d s 2 q w d k e e y @XnXFXSXSXcX",
"m m = = dXdX_.e.m.Z.9.l.j.g.2.X.-.<.>.f.D.f.#.d -.;.5.g.:.#.#.X.} ;.[ d q j d x h k y *.xXMXSXVXcXxX",
"r._.W M [._.e.M.P.Z.9.T.k.5.2.;.-.| C.C.h.D.#.6 1 :.#.:.{ } #.0 e @.#.d s z f d d c r B.cXcXVXcXfXwX",
"].].0.r.dX].0.'.rXZ.h.k.j.f.+.,.-.C.S.k.,.D.5.[ q 1 s q 2 z 1 0 } $.$.{ k d { z s k % =.wX#XgXwXwX#X",
"w.~.w.~.p.e.3.6XtX<Xx.k.f.f.<.-.k.yXeXC.g.f.h.5.;.{ d #.{ 0 h $.%.@.%.@.s q z d s b - v wXV.p.+XOXa.",
"W W 0.*.C e.x.P.rXG.x.A.j.d.>.l.yXjX9XD.S.h.h.g.5.6.h.h.6.6.6.6.4.%.5.1.k 0 s z w k U U OXa.OX%Xa.a.",
"0.C *.*.o.1.F.6X1XD.A.A.c.s.z.4XjXvXyXG.S.Z.k.h.x.g.1.6.6.:.5.6.5.h.6.h.5.s d z b k 8.=.Y t.OX^.^.^.",
"M t V B x #.G.rXG.G.G.A.C.,.S.hXkXjXkX5XG.S.k.2.;.#.#.#.#...#.$.@.$.:.6.H.$.b d k l *.i.=.a.OX`.`.OX",
"h w e w z ;.D.G.Z.S.Z.eXS.h.eXhXuXkXvXhXG.k.f.;.;.| [ z z [ [ x x h $.%.Z.Z.x b k U U i.u.q.a.a.a.`.",
"0 6 6 6 j [ 2.C.D.D.L.kXD.1XhX9XuXjXlXjX<XA.k.>.-.{ [ { { } { #.} x } } 6.2X:.i e &.8.U i.=.Y u.u.M.",
"6 1 6 6 d s | h.G.L.aXaXL.rXaXyXeXhXyXhX3XA.g.f.X.X.| | X.X.} X.X.| X.-.:.L.h.c l %.7.&.&.l * r l B ",
"6 1 1 1 q s z 5.<X5XrXtX5XhXhXuXeXuXuX5XG.k.2.h.;.;.;.| -.,.;.,.2.,.5.#.5.H.Z.@...%.7.4.c B % % * - ",
"2 < < < , a d :.h.3X9XuXuXvXjX4XyX5XeX1XC.g.x.;.2.-.:.#.-.2.,.g.g.f.g.:.b.F.2X7.%.4.c 6.@.$ $   @ % ",
"3 , , < 4 3 q | ,.L.1X5XyXjXkXuXS.yX1X1Xj.;.>.;.:.X.-.-.-.:.;.;.f.<.#.:.h.b.I.H.%.4.%.e c 0 O O   @ ",
"3 3 , < , , 2 d j k.3X5XhXhXyX3X,Xj.uX4XC.f.-.O.-.| | #.[ s f [ [ { X.1.5.6.F.v.6.@.@.w % @   O   @ ",
"1 < # , < # 3 1 s ;.3X9XyXkXkX1X,XA.x.<XD.k.k.,.,.| j } [ s s s z z { #.1.4.H.v.5.:.@.w @ O @ @ # $ ",
"1 # # # < # < , q h Z.rXaXjXvXeX<X3Xk.j.d.{ X.| f [ } [ d s s a a j #.#.$.$.H.P.%...d 0 #   #   # $ ",
"$ # # # # # # # # w 5.P.aXzXvXhX5XA.<X,X1XC.,.#.} f f [ j s s j j z z h x 4.I.L.$.k @ # X X X X @ # ",
"1 # 1 # # # o , 1 2 } G.9XbXAXhX<X1XS.k.h.g.D.Z.Z.b.2.;.-.X.X.#.;.1.1.:.%.n.0XH...5 X   X @ X # @ # ",
"# # # , , # # < 6 # s h.1XvXAXvXeXL.G.D.5.| | #.#.5.-.z z { X.5.;.$.#.%.6.0XzXH.q @ X X X X   X @ @ ",
"< , # , , + < 3 2 2 2 #.<XbXbXbXyXL.D.x.C.h.;.} } #.} z { { } :.:.$.:.7.n.pXzXn.@     X X X   X @ @ ",
"2 1 < , < , < 6 < a 3 q h.vXbXbXvX2Xh.2.5.:.#.$.#.k #.%.z x #.#.:.4.4.%.v.pXzXv.@   X X X X   O O @ ",
"  $ 0 < 2 q 1 q 2 6 1 1 | kXAXAXDXkX9XZ.6.%.:.@.$.$.%.@.} #.#.:.%.:.5.8.8XxXxXn.@                   ",
"c . X 1 @ # 1 # $ @ # X # $.h.6.b.h.#.k q q d 1 w q q 1 $ 0 w q w 1 0 k 4.%.%.c O                   ",
"K.I.I.K.I.2XI.I.P.K.K.H.H.L.H.L.P.I.I.J.2XH.H.P.P.I.2X7X6XP.6X0XpX0X0X0XqXI.@XI.I.H.H.L.L.L.K.K.I.I.",
"K.J.H.L.K.L.K.K.L.H.H.n.n.n.n.L.pX0X0XqX0X0X8X7XI.I.I.8X8XI.6X8X8X2XK.K.L.K.I.K.K.H.Z.P.I.I.I.K.7X7X",
"H.H.H.L.L.H.H.H.H.B.H.L.n.v.n.K.pXpXpXpX0X0X7XI.I.I.I.I.I.I.7X7X7XI.K.L.H.H.H.L.H.H.L.K.I.7X@XI.7X7X",
"L.L.L.L.H.H.H.H.L.H.H.L.n.v.n.K.pXpXpXpX0X0X7XI.I.I.I.I.I.I.7X}.7XI.K.L.H.H.H.L.H.H.L.K.I.@X@XI.7X7X"
};
